<svg width="135" height="227" viewBox="0 0 135 227" fill="none" xmlns="http://www.w3.org/2000/svg">
<g clip-path="url(#clip0_530_90)">
<path d="M85.3036 45.8384C82.1144 49.7099 76.5419 57.633 78.5947 61.1508C80.6297 64.6284 83.6894 63.922 83.6894 63.922C83.6894 63.922 78.8586 70.5332 81.7258 74.8263C85.2685 80.1338 90.3433 77.4416 90.3433 77.4416C90.3433 77.4416 88.0418 82.7069 93.596 85.8462C98.0915 88.3877 104.331 83.0854 104.331 83.0854C104.331 83.0854 103.85 86.1933 107.475 87.9601C111.135 89.7461 118.617 83.6062 122.24 80.1392C126.238 76.3116 172.416 27.8477 172.416 27.8477L132.736 -8.98898C132.736 -8.98898 88.8236 41.5672 85.3036 45.8384Z" fill="#DEB180"/>
<path d="M100.757 64.9335C106.61 70.366 116.147 70.903 115.927 64.9629C115.706 59.0229 110.172 61.3416 106.752 58.1658C103.525 55.1563 104.824 50.3538 100.338 49.6306C95.8531 48.9074 94.126 58.7763 100.757 64.9335Z" fill="#2D2B2C"/>
<path d="M109.081 84.6219C110.795 85.957 112.777 84.6112 114.191 82.6995C115.605 80.7878 115.683 78.7062 114.484 77.8095C113.285 76.9128 110.896 77.7048 109.274 79.6387C107.653 81.5727 107.688 83.5386 109.081 84.6219Z" fill="#2D2B2C"/>
<path d="M100.284 75.7325C99.0836 74.8345 96.6959 75.6278 95.0727 77.5631C93.4495 79.4985 93.4825 81.4645 94.8797 82.5463C96.5936 83.8814 98.5752 82.5356 99.9907 80.6225C101.406 78.7094 101.482 76.6292 100.284 75.7325Z" fill="#2D2B2C"/>
<path d="M90.6974 66.8319C89.4987 65.9352 87.1083 66.7286 85.4878 68.6638C83.8673 70.5991 83.8976 72.5652 85.2948 73.647C87.0073 74.9807 88.9903 73.6363 90.4045 71.7246C91.8188 69.8129 91.8948 67.73 90.6974 66.8319Z" fill="#2D2B2C"/>
<path d="M82.8286 55.0832C81.211 57.0238 81.2384 58.9846 82.6356 60.0664C84.3481 61.4001 86.3311 60.0557 87.7467 58.1426C89.1623 56.2295 89.2369 54.148 88.0383 53.2513C86.8396 52.3546 84.4434 53.14 82.8286 55.0832Z" fill="#2D2B2C"/>
<g opacity="0.2">
<path opacity="0.2" d="M106.66 66.3418C110.541 67.7019 113.544 66.7509 113.478 64.9809C113.413 63.2108 109.387 64.6962 107.217 63.4411C105.18 62.2604 102.296 59.9051 101.35 60.558C99.7656 61.6501 102.47 64.8727 106.66 66.3418Z" fill="white"/>
<path opacity="0.2" d="M110.174 83.4201C110.859 84.1277 111.96 83.2432 112.654 82.5896C113.229 82.0491 113.977 81.1906 113.512 80.6197C113.047 80.0488 112.146 80.8364 111.496 81.2283C110.847 81.6202 109.615 82.8416 110.174 83.4201Z" fill="white"/>
<path opacity="0.2" d="M98.967 78.8755C98.5016 78.3019 97.6014 79.0922 96.9503 79.4855C96.2992 79.8788 95.0706 81.0974 95.6288 81.6759C96.3128 82.3849 97.4154 81.499 98.1092 80.8454C98.687 80.3021 99.4337 79.445 98.967 78.8755Z" fill="white"/>
<path opacity="0.2" d="M86.1014 72.6094C86.7854 73.3184 87.888 72.4325 88.5818 71.7789C89.1556 71.2398 89.9063 70.3812 89.4382 69.8104C88.9702 69.2396 88.0739 70.0257 87.4228 70.419C86.7717 70.8123 85.5418 72.0323 86.1014 72.6094Z" fill="white"/>
<path opacity="0.2" d="M83.2605 58.7193C83.9446 59.4283 85.0471 58.5424 85.7409 57.8887C86.3148 57.3496 87.0655 56.491 86.5987 55.9189C86.132 55.3467 85.2331 56.1355 84.582 56.5288C83.9309 56.9221 82.701 58.1422 83.2605 58.7193Z" fill="white"/>
</g>
<path d="M135.573 -1.30863C133.826 -2.95095 131.973 -4.47665 130.026 -5.87585C128.071 -3.62099 125.184 -0.296892 121.801 3.60176C128.111 9.25665 136.475 14.7321 138.375 15.8358C146.484 20.5491 155.523 23.6646 162.473 30.1226C163.71 31.2768 165.081 32.6361 166.409 34.1413C168.433 32.0189 170.053 30.3194 171.099 29.2229C169.218 28.2139 167.323 27.1712 165.465 25.9856C157.648 21.002 151.379 13.3758 144.587 7.05797L135.573 -1.30863Z" fill="#2D2B2C"/>
<path d="M112.118 14.771C113.531 18.303 116.906 20.8156 119.951 23.3928C130.062 31.9894 141.742 40.6755 150.354 50.9552C152.771 48.4281 155.143 45.9435 157.396 43.5842C155.005 41.2566 153.112 39.1785 152.476 38.4692C143.494 28.6234 133.055 10.7925 118.766 7.10315C116.638 9.5575 114.398 12.1397 112.118 14.771Z" fill="#2D2B2C"/>
<path d="M102.999 25.2948C99.9812 28.7815 97.0961 32.1151 94.5531 35.0594C96.3871 37.9246 98.5042 40.5985 100.873 43.0407C106.788 49.118 113.572 54.2387 120.392 59.2218C124.774 62.4266 129.588 65.0046 134.277 67.7368C136.716 65.2008 139.372 62.4283 142.115 59.5669C132.433 51.789 123.991 42.2703 114.515 34.2604C113.173 33.1167 108.119 28.7434 102.999 25.2948Z" fill="#2D2B2C"/>
</g>
<g clip-path="url(#clip1_530_90)">
<path d="M70.9958 104.885C70.9958 104.885 65.3507 99.2252 64.0698 100.125C62.4724 101.239 67.2564 108.111 67.2564 108.111L70.9958 104.885Z" fill="#7A796E"/>
<path d="M55.5426 121.532C55.5426 121.532 48.0775 118.705 47.2736 120.058C46.2756 121.733 53.4705 126.012 53.4705 126.012L55.5426 121.532Z" fill="#7A796E"/>
<path d="M74.1977 169.664C74.1977 169.664 69.1914 175.882 67.8155 175.13C66.1078 174.19 70.1472 166.851 70.1472 166.851L74.1977 169.664Z" fill="#7A796E"/>
<path d="M57.0775 154.746C57.0775 154.746 49.9537 158.348 49.0097 157.088C47.8413 155.529 54.5424 150.511 54.5424 150.511L57.0775 154.746Z" fill="#7A796E"/>
<path d="M71.7612 103.005C59.5482 107.02 65.0871 118.187 65.0871 118.187C65.0871 118.187 53.1392 115.776 51.6989 124.781C50.542 132.019 55.7427 136.969 57.3787 137.863C55.9465 138.785 50.8377 145.268 53.6308 152.316C57.0552 160.955 66.8298 156.787 66.8298 156.787C66.8298 156.787 62.4213 168.454 74.9683 171.236C85.0386 173.474 85.7389 158.726 90.1842 157.94C94.6295 157.153 153.206 160.674 153.206 160.674L150.656 105.78C150.656 105.78 92.724 115.072 88.2222 114.73C83.7204 114.387 81.5688 99.7833 71.7612 103.005Z" fill="#FCF0E3"/>
<path d="M71.6421 136.925C71.9074 145.021 78.3204 152.274 82.4347 147.875C86.5491 143.475 80.937 141.143 80.7818 136.407C80.6352 131.933 85.0246 129.444 82.3454 125.693C79.6662 121.941 71.3416 127.756 71.6421 136.925Z" fill="#1A1A1A"/>
<path d="M72.4984 161.541C71.2217 163.758 71.588 165.713 73.1696 166.553C75.1124 167.585 76.8532 165.907 77.9348 163.747C79.0164 161.587 78.7315 159.499 77.383 158.809C76.0344 158.119 73.7766 159.313 72.4984 161.541Z" fill="#1A1A1A"/>
<path d="M65.2142 145.269C64.2609 144.088 61.7144 144.265 59.6441 145.768C57.5739 147.272 57.1128 149.206 58.2139 150.617C59.5675 152.354 61.8473 151.535 63.708 150.004C65.5687 148.472 66.1654 146.451 65.2142 145.269Z" fill="#1A1A1A"/>
<path d="M70.7575 108.902C69.3366 109.99 69.2984 111.979 70.9231 113.957C72.5478 115.935 74.9672 116.754 76.1853 115.845C77.4034 114.936 77.3366 112.837 75.9213 110.883C74.506 108.93 72.5055 107.564 70.7575 108.902Z" fill="#1A1A1A"/>
<path d="M57.0634 126.466C56.2102 128.041 56.98 129.873 59.2734 131.014C61.5668 132.156 64.1034 131.911 64.8478 130.588C65.5922 129.265 64.6721 127.369 62.5855 126.17C60.4988 124.971 58.1154 124.534 57.0634 126.466Z" fill="#1A1A1A"/>
<path d="M93.6606 153.828C95.1671 153.867 96.6755 153.901 98.1809 153.963C99.3369 154.013 100.662 153.987 101.766 154.307C102.375 154.482 103.062 154.053 103.205 153.58C103.381 153.02 102.944 152.587 102.336 152.411C101.104 152.061 99.617 152.088 98.3242 152.029C96.7502 151.956 95.1717 151.924 93.5968 151.883C92.063 151.846 92.1365 153.79 93.6608 153.834L93.6606 153.828Z" fill="#2D2B2C"/>
<path d="M100.025 149.597C101.472 149.389 102.92 149.179 104.375 149.009C105.463 148.879 107.094 148.677 107.93 148.783C109.434 148.976 110.019 147.08 108.5 146.887C107.194 146.719 105.834 146.893 104.533 147.039C103.002 147.208 101.483 147.434 99.9609 147.652C99.3205 147.743 98.7856 148.081 98.8048 148.666C98.8204 149.144 99.3824 149.692 100.025 149.602L100.025 149.597Z" fill="#2D2B2C"/>
<path d="M96.0026 143.075C96.9511 142.862 97.8714 142.564 98.7944 142.288C99.2829 142.141 99.7754 141.996 100.268 141.861C100.461 141.804 100.672 141.752 100.877 141.704C100.96 141.684 101.046 141.665 101.129 141.649C101.481 141.575 100.92 141.656 101.191 141.647C102.717 141.544 102.659 139.599 101.127 139.696C100.223 139.757 99.3339 140.067 98.4881 140.318C97.4356 140.63 96.39 140.972 95.3101 141.221C93.8254 141.553 94.5199 143.407 96.0026 143.075Z" fill="#2D2B2C"/>
<path d="M93.4261 132.163C96.7098 132.166 99.9625 131.7 103.24 131.581C104.773 131.531 104.709 129.58 103.176 129.631C99.8986 129.75 96.6459 130.216 93.3622 130.212C91.8275 130.21 91.8971 132.154 93.4261 132.163Z" fill="#2D2B2C"/>
<path d="M107.033 135.999C109.3 135.794 111.613 135.849 113.837 135.352C115.319 135.017 114.625 133.163 113.142 133.497C111.141 133.953 109.021 133.868 106.974 134.054C105.457 134.192 105.511 136.137 107.038 136.005L107.033 135.999Z" fill="#2D2B2C"/>
<path d="M109.704 126.563C111.123 126.019 112.775 125.85 114.317 125.897C115.859 125.944 115.774 124 114.253 123.946C112.273 123.883 110.301 124.213 108.449 124.917C108.324 124.967 108.212 125.045 108.121 125.146C108.031 125.246 107.965 125.366 107.928 125.496C107.891 125.625 107.885 125.762 107.909 125.895C107.933 126.028 107.988 126.153 108.068 126.262C108.441 126.749 109.114 126.784 109.704 126.556L109.704 126.563Z" fill="#2D2B2C"/>
<path d="M93.7909 123.939C95.807 123.58 97.5193 122.34 99.604 122.227C101.132 122.142 101.072 120.197 99.54 120.276C97.181 120.404 95.3527 121.675 93.0962 122.079C91.5958 122.347 92.2981 124.201 93.7907 123.933L93.7909 123.939Z" fill="#2D2B2C"/>
<path d="M112.312 118.016C115.14 117.257 118.114 117.045 120.986 116.433C122.475 116.119 121.776 114.259 120.291 114.579C117.421 115.185 114.445 115.403 111.619 116.16C110.16 116.552 110.847 118.408 112.312 118.016Z" fill="#2D2B2C"/>
<path d="M124.804 126.461C127.071 126.25 129.324 125.936 131.608 125.848C133.139 125.797 133.077 123.847 131.544 123.897C129.264 123.983 127.01 124.297 124.74 124.51C123.224 124.652 123.276 126.597 124.804 126.461Z" fill="#2D2B2C"/>
<path d="M111.875 143.367C113.885 143.428 115.892 143.489 117.904 143.429C119.437 143.379 119.374 141.44 117.84 141.479C115.828 141.544 113.822 141.477 111.811 141.416C110.279 141.371 110.354 143.315 111.875 143.367Z" fill="#2D2B2C"/>
<path d="M109.234 154.71C111.333 154.923 113.353 155.462 115.452 155.678C116.956 155.824 117.54 153.936 116.022 153.783C113.923 153.571 111.903 153.031 109.805 152.815C108.299 152.669 107.717 154.557 109.234 154.71Z" fill="#2D2B2C"/>
<path d="M118.927 150.412C121.357 150.2 123.788 149.991 126.198 149.655C126.839 149.565 127.374 149.226 127.355 148.64C127.339 148.162 126.777 147.616 126.134 147.704C123.724 148.041 121.293 148.253 118.863 148.462C117.344 148.593 117.398 150.541 118.927 150.412Z" fill="#2D2B2C"/>
<path d="M132.676 153.718C135.557 153.51 138.435 153.705 141.212 152.883C142.655 152.459 141.972 150.601 140.52 151.029C137.951 151.787 135.273 151.58 132.612 151.773C131.089 151.883 131.145 153.828 132.676 153.723L132.676 153.718Z" fill="#2D2B2C"/>
<path d="M128.238 144.13C130.744 144.024 133.156 143.445 135.487 142.689C136.907 142.227 136.228 140.368 134.792 140.835C132.659 141.528 130.472 142.088 128.174 142.185C126.643 142.249 126.705 144.186 128.238 144.136L128.238 144.13Z" fill="#2D2B2C"/>
<path d="M120.546 136.949C122.897 136.501 125.269 136.175 127.653 135.972C129.171 135.836 129.117 133.891 127.589 134.021C124.994 134.244 122.412 134.601 119.854 135.089C118.358 135.38 119.058 137.232 120.546 136.943L120.546 136.949Z" fill="#2D2B2C"/>
<path d="M131.614 131.005C133.702 130.341 136.463 130.221 138.587 130.776C140.045 131.16 140.601 129.259 139.159 128.881C136.685 128.232 133.357 128.376 130.922 129.151C129.496 129.606 130.175 131.464 131.614 131.005Z" fill="#2D2B2C"/>
<path d="M135.117 120.393C135.229 120.304 134.893 120.512 135.18 120.372C135.294 120.323 135.284 120.323 135.153 120.373C135.253 120.334 135.358 120.301 135.46 120.271C135.845 120.156 136.237 120.062 136.632 119.99C137.604 119.809 138.584 119.677 139.569 119.595C140.607 119.497 141.655 119.439 142.699 119.424C143.496 119.414 143.901 119.385 144.56 119.558C146.014 119.948 146.568 118.048 145.13 117.661C144.353 117.454 143.447 117.478 142.636 117.483C141.466 117.492 140.299 117.575 139.133 117.69C137.96 117.796 136.794 117.965 135.639 118.195C134.842 118.36 133.985 118.587 133.383 119.071C132.279 119.959 134.009 121.275 135.107 120.382L135.117 120.393Z" fill="#2D2B2C"/>
<path d="M124.167 120.098C124.979 119.306 126.308 118.979 127.363 118.458C128.683 117.808 127.431 116.167 126.108 116.818C124.858 117.445 123.412 117.836 122.443 118.778C121.473 119.72 123.173 121.068 124.167 120.098Z" fill="#2D2B2C"/>
<path d="M98.2036 118.248C100.112 118.166 101.984 117.761 103.9 117.804C105.434 117.835 105.36 115.891 103.836 115.853C101.92 115.81 100.048 116.215 98.1397 116.299C96.6093 116.365 96.6707 118.3 98.2036 118.25L98.2036 118.248Z" fill="#2D2B2C"/>
<g opacity="0.26">
<path opacity="0.26" d="M74.5811 142.408C76.3698 146.175 79.195 147.659 80.4195 146.347C81.6439 145.036 77.7073 143.198 77.0632 140.739C76.4591 138.429 76.1019 134.67 74.9542 134.453C73.0392 134.092 72.6501 138.341 74.5811 142.408Z" fill="#F08641"/>
<path opacity="0.26" d="M74.2743 165.992C75.0532 166.616 76.0527 165.58 76.6602 164.839C77.1684 164.223 77.8098 163.267 77.2702 162.749C76.7307 162.232 75.9182 163.141 75.3235 163.62C74.7289 164.098 73.6394 165.481 74.2743 165.992Z" fill="#F08641"/>
<path opacity="0.26" d="M59.0831 150.114C59.4585 151.039 60.835 150.619 61.7263 150.27C62.4694 149.978 63.4955 149.456 63.2751 148.741C63.0547 148.025 61.9 148.428 61.1514 148.552C60.4028 148.676 58.7756 149.359 59.0831 150.114Z" fill="#F08641"/>
<path opacity="0.26" d="M57.8221 127.545C57.2503 128.362 58.349 129.285 59.1259 129.846C59.773 130.313 60.7688 130.891 61.2493 130.319C61.7297 129.747 60.7712 129.001 60.2533 128.43C59.7355 127.859 58.2877 126.877 57.8221 127.545Z" fill="#F08641"/>
<path opacity="0.26" d="M70.9846 110.114C70.1954 110.725 70.9664 111.94 71.5414 112.706C72.0206 113.345 72.7971 114.194 73.4274 113.791C74.0576 113.388 73.364 112.391 73.0407 111.691C72.7175 110.99 71.6292 109.614 70.9846 110.114Z" fill="#F08641"/>
</g>
</g>
<g clip-path="url(#clip2_530_90)">
<path d="M8.14966 67.347C8.14966 67.347 1.83757 71.5668 2.43859 72.9359C3.18204 74.6325 10.4671 71.4254 10.4671 71.4254L8.14966 67.347Z" fill="#2D2B2C"/>
<path d="M20.8138 84.835C20.8138 84.835 16.8035 91.2814 17.9157 92.2815C19.2923 93.5195 24.6072 87.5925 24.6072 87.5925L20.8138 84.835Z" fill="#2D2B2C"/>
<path d="M69.0987 76.2844C69.0987 76.2844 73.976 82.1038 73.0166 83.249C71.829 84.6599 65.733 79.5501 65.733 79.5501L69.0987 76.2844Z" fill="#2D2B2C"/>
<path d="M52.0443 89.5249C52.0443 89.5249 54.0874 96.8359 52.7409 97.4733C51.0618 98.2761 47.6312 91.0904 47.6312 91.0904L52.0443 89.5249Z" fill="#2D2B2C"/>
<path d="M6.53972 66.2818C8.03099 78.4177 19.4623 75.3057 19.4623 75.3057C19.4623 75.3057 15.0136 86.0131 23.1393 89.0144C29.6715 91.426 35.2413 87.4832 36.3751 86.122C36.9695 87.6277 42.0692 93.589 49.1537 92.2793C57.833 90.6758 55.7506 80.7852 55.7506 80.7852C55.7506 80.7852 65.8031 87.0485 70.713 75.8476C74.6529 66.8625 61.0409 63.4952 61.1285 59.2008C61.2161 54.9063 75.2879 0.897104 75.2879 0.897104L23.6699 -6.83009C23.6699 -6.83009 21.6541 48.9485 20.5076 53.0866C19.361 57.2246 5.34419 56.5421 6.53972 66.2818Z" fill="#FDBF12"/>
<path d="M38.1175 72.6466C45.7085 73.8891 53.6492 69.2407 50.3091 64.5905C46.9689 59.9404 44.8275 57.7766 40.3911 57.0513C36.1951 56.3643 33.6172 58.7819 29.6288 60.5911C25.6404 62.4004 29.5281 71.2362 38.1175 72.6466Z" fill="#2D2B2C"/>
<path d="M61.2162 76.3753C63.0485 77.977 64.9372 77.9938 66.0104 76.6735C67.3309 75.0488 66.0976 73.1115 64.2737 71.7092C62.4499 70.3069 60.4635 70.1846 59.5706 71.3172C58.6778 72.4497 59.3836 74.7755 61.2162 76.3753Z" fill="#2D2B2C"/>
<path d="M44.7144 80.1787C43.4455 80.8521 43.1328 83.2606 44.1529 85.4697C45.1729 87.6787 46.8914 88.4639 48.4086 87.6963C50.2756 86.752 49.9323 84.475 48.8477 82.4537C47.7632 80.4323 45.9908 79.5082 44.7144 80.1787Z" fill="#2D2B2C"/>
<path d="M11.8489 68.3108C12.6014 69.8378 14.4472 70.2318 16.5884 69.0887C18.7296 67.9457 19.9357 65.8284 19.3182 64.5238C18.7006 63.2192 16.7277 62.8945 14.6461 63.8571C12.5646 64.8197 10.924 66.4308 11.8489 68.3108Z" fill="#2D2B2C"/>
<path d="M25.695 84.3262C27.0035 85.4137 28.8541 85.0287 30.3389 83.1021C31.8237 81.1755 32.0648 78.7593 30.9699 77.8205C29.875 76.8816 27.939 77.3906 26.4319 79.1178C24.9249 80.845 24.0844 82.988 25.695 84.3262Z" fill="#2D2B2C"/>
<path d="M53.6614 33.4553C47.9306 34.2777 48.2035 43.2432 50.2478 46.8862C52.1465 50.2838 57.9801 52.837 62.4761 52.2016C63.5995 47.2003 65.3291 40.0893 67.1615 32.7408C65.2625 33.7181 63.3175 34.7757 61.2823 35.0297C58.5449 35.3797 56.1584 33.0965 53.6614 33.4553Z" fill="#2D2B2C"/>
<path d="M21.9709 32.966C27.4573 33.5637 32.0503 33.0238 37.1288 29.6531C42.3948 26.1583 47.4331 22.7939 53.1731 20.1092C57.4202 18.1286 59.4747 16.0843 60.2251 11.4903C60.824 7.80276 61.3059 3.01552 60.6004 -1.29545L23.6667 -6.82263C23.6667 -6.82263 22.8555 15.5105 21.9709 32.966Z" fill="#2D2B2C"/>
<g opacity="0.33">
<path opacity="0.33" d="M43.6452 71.1194C47.4842 70.1422 49.3981 67.7707 48.3917 66.3941C47.3852 65.0175 44.9554 68.3465 42.5459 68.4932C40.2828 68.6321 36.7139 68.275 36.3002 69.3052C35.6107 71.0267 39.4997 72.1711 43.6452 71.1194Z" fill="#DEB180"/>
<path opacity="0.33" d="M65.5627 75.745C66.2888 75.1359 65.5056 74.0113 64.9294 73.3034C64.4489 72.7163 63.6754 71.9425 63.0943 72.3492C62.5133 72.756 63.2101 73.6766 63.5447 74.3264C63.8793 74.9763 64.9711 76.2446 65.5627 75.745Z" fill="#DEB180"/>
<path opacity="0.33" d="M47.9707 87.0005C48.9001 86.8214 48.7675 85.4584 48.6016 84.5623C48.4665 83.8156 48.1686 82.7622 47.4594 82.8375C46.7502 82.9128 46.9167 84.0525 46.8926 84.7856C46.8684 85.5188 47.2084 87.1492 47.9707 87.0005Z" fill="#DEB180"/>
<path opacity="0.33" d="M26.7063 84.0226C27.3632 84.7001 28.4323 83.8623 29.0986 83.2314C29.651 82.7168 30.3748 81.8914 29.9292 81.3365C29.4836 80.7816 28.6136 81.5402 27.9855 81.9171C27.3574 82.2939 26.1688 83.4651 26.7063 84.0226Z" fill="#DEB180"/>
<path opacity="0.33" d="M12.8882 68.5311C13.3128 69.3738 14.5884 68.8839 15.4076 68.4876C16.0922 68.1577 17.0269 67.5884 16.7665 66.927C16.5061 66.2655 15.4499 66.73 14.7396 66.9013C14.0292 67.0727 12.5452 67.8271 12.8882 68.5311Z" fill="#DEB180"/>
</g>
</g>
<defs>
<clipPath id="clip0_530_90">
<rect width="54.1412" height="96.4698" fill="white" transform="translate(106.624 98.3906) rotate(-136.998)"/>
</clipPath>
<clipPath id="clip1_530_90">
<rect width="75.2458" height="104.652" fill="white" transform="translate(48.9941 175.821) rotate(-91.877)"/>
</clipPath>
<clipPath id="clip2_530_90">
<rect width="71.475" height="99.6053" fill="white" transform="translate(70.835 100.029) rotate(-172.328)"/>
</clipPath>
</defs>
</svg>
